<?xml version="1.0" encoding="UTF-8"?>
<svg id="Layer_2" data-name="Layer 2" xmlns="http://www.w3.org/2000/svg" viewBox="0 0 400.09 400.1">
  <defs>
    <style>
      .cls-1 {
        stroke-width: 0px;
      }
    </style>
  </defs>
  <g id="Layer_1-2" data-name="Layer 1">
    <path class="cls-1" d="m200.05,400.1c-1.99,0-3.97-.04-5.95-.09l40.88-112.36h56.26c9.88,0,20.72-7.59,24.09-16.87l44.35-121.83c7.26-19.95-4.17-36.27-25.39-36.27h-78.06l-65.49,179.97h-.02l-37.13,102.02C65.52,373.72,0,294.54,0,200.05S61.79,30.95,146.04,7.39l-38.31,105.3h-.01l-63.69,174.96h42.4s54.16-148.67,54.16-148.67h31.86l-54.16,148.67h42.38s50.47-138.7,50.47-138.7c7.26-19.95-4.16-36.27-25.37-36.27h-35.64L191.05.21c2.98-.13,5.98-.21,8.99-.21,110.48,0,200.05,89.56,200.05,200.05s-89.56,200.05-200.05,200.05h0Zm121.04-261.23h-31.85l-44.61,122.4h31.86l44.61-122.4Z"/>
  </g>
</svg>