<svg xmlns="http://www.w3.org/2000/svg" width="400.01" height="159.233" viewBox="0 0 400.01 159.233">
  <path id="path5037" d="M311.245.2V79.64l-1.013.837-1.013.837-.971.879-.929.879-.887.879-.887.921-.845.921-.845.921V.2H215.046V72.525H207.7V.2H118.89V72.651h-7.348V.2H22.733V82.779L.056,157.656H19.988L30,124.508h2.872l16.554,33.148H73.493L57.446,124.508h36.4L83.755,157.656H105.5l9.966-33.065h4.814v-.084h48.479l-9.628,33.065h21.959l9.333-33.065h9.882l.253,33.065h18.412l21.157-33.065h13.851L246.8,157.572h21.622l7.052-33.065h12.5l-.084,1.883.045,1.925.084,1.842L288.19,132l.127.879.127.879.169.879.169.879.211.879.211.837.253.837.253.837.3.837.3.8.338.8.338.753.38.8.38.753.422.712.422.753.465.712.507.67.507.712.549.628.549.67.549.628.633.628.633.586.8.67.8.67.845.628.887.586.887.586.887.544.929.46.971.5.929.418.971.419.971.377,1.013.377,1.013.335,1.014.293,1.013.293,1.014.251,2.027.46,2.069.335,2.027.293,2.027.251,1.985.167,1.943.084,1.9.084h1.816l2.449-.04,2.449-.04,2.492-.126,2.492-.126,2.492-.209,2.492-.209,2.492-.251,2.492-.293,2.534-.335,2.534-.377,2.534-.418,2.534-.418,2.534-.46,2.534-.5,2.534-.5,2.576-.586,7.517-30.009h24.662V.205H311.247ZM30.968,121.411l.127-.46.3.46h-.422Zm77.364-44.533-1.267,4.227L95.241,120.029l-.465,1.381H55.925l-3-6.362,41.849-42.4h-26.9L35.148,107.6l10.6-34.948H25.9V3.34h82.432V76.878Zm22.931,32.9h0l-.633.04-.591.04-.633.04h-2.323l-.718.04h-.676l-5.279-.04,2.449-8.957L124,96.5l2.787-10.422H128.6l.887-.04h4.941l2.492.04,2.28.084,1.013.04.971.084.929.126.845.126.76.126.718.209.676.209.591.251.507.251.465.335.422.335.338.418.211.335.169.335.169.377.127.418.084.46.045.46v1.046l-.045.586-.04.586-.127.67-.127.67-.38,1.423-.465,1.59-.465,1.339-.507,1.3-.549,1.214-.591,1.13-.3.5-.3.5-.338.5-.38.46-.38.46-.38.418-.422.418-.422.377-.465.335-.465.377-.507.293-.549.335-.549.293-.591.251-.591.251-.633.209-.676.251-.718.167-.76.167-.76.167-.845.126-.845.126-.887.084-.929.084Zm60.05,11.635,8.657-30.553.338,30.553h-8.995Zm13.176-48.886H183.881l-14.189,48.886H147.817l1.013-.418,1.014-.418.971-.418.971-.46.929-.46.887-.544.887-.5.845-.544.845-.586.8-.586.76-.586.76-.67.718-.628.676-.712.676-.67.633-.753.633-.711.591-.8.549-.753.549-.837.507-.837.465-.837.465-.879.422-.921.422-.921.38-.921.338-.963.338-1,.253-1,.3-1,.211-1.088.211-1.046.3-1.674.253-1.59.169-1.507.127-1.423.045-1.423-.045-1.3-.04-1.3L168.47,86.5l-.169-1.13-.3-1.13-.3-1.046-.422-1-.465-.963-.507-.963-.591-.879-.676-.837-.549-.586-.549-.586-.591-.5-.633-.46-.676-.46-.676-.418-.718-.377-.718-.335-.76-.335-.76-.251-.8-.251-.8-.251-.845-.209-.845-.167-.845-.167-.887-.126-1.816-.251-1.816-.126-1.858-.126-1.9-.04H122.059V3.343h82.432V72.527Zm50.084,48.886H242.2l18.75-29.3Zm46.072-47.5L300.6,90.857l-1.056,1.465-.971,1.507-.971,1.507-.887,1.507-.845,1.507-.845,1.549-.718,1.507-.718,1.507-.676,1.465-.591,1.507-.591,1.465-.507,1.423-.465,1.423-.422,1.381-.38,1.339-.338,1.339-.211.879-.211.921-.211.879-.169.921-.169.879-.127.879-.127.879-.084.921h-12.12l10.346-48.76-34.882-.04-31.208,48.8h-2.28V3.342h82.474V73.908Zm47.55,67.469-1.731.293-1.774.251-1.774.251-1.731.209-1.731.167-1.731.126-1.689.084h-2.787l-1.1-.04-1.056-.084-1.056-.126-1.014-.167-.971-.167-.971-.209-.929-.251-.887-.293-.887-.293-.845-.377-.8-.377-.8-.46-.76-.46-.718-.5-.676-.5-.676-.586-.591-.628-.591-.628-.549-.712-.507-.711-.465-.8-.422-.8-.422-.837-.338-.879-.3-.963-.253-.963-.253-1-.169-1.046-.127-1.088-.084-1.13-.045-1.172h38.429l-4.223,16.867Zm48.733-19.964H376.152l3.421-13.644H337.934l-3.421,13.644H314.37v-2.8l.253-1.172.211-1.172.253-1.256.253-1.256.38-1.381.38-1.381.422-1.381.465-1.339.507-1.339.549-1.339.591-1.3.591-1.3.676-1.3.676-1.214.718-1.256.8-1.172.8-1.172.8-1.13.887-1.088.929-1.046.971-1,.971-.921,1.056-.921,1.056-.879,1.1-.8,1.182-.753,1.182-.67,1.225-.628,1.267-.586,1.309-.5,1.351-.418,1.394-.335,1.436-.293,1.478-.209,1.52-.126,1.563-.04,1.225.04,1.225.084,1.225.167,1.182.251.591.167.549.167.549.167.507.251.507.209.507.293.465.293.465.293.422.377.422.377.38.377.38.46.338.418.3.5.253.544.253.544.211.586.169.628.127.628.127.712.045.712v1.549l-.084.837h24.831l.38-1.716.338-1.967.169-1.046.084-1.13.084-1.13V88.01l-.04-1.214-.127-1.256-.127-.586-.084-.628-.169-.628-.169-.628-.211-.67-.211-.628-.253-.628-.3-.628-.3-.628-.38-.628-.38-.628-.422-.628-.507-.67-.549-.628-.549-.628-.591-.586-.633-.586-.676-.544-.676-.5-.718-.5-.76-.5-.76-.418-.8-.418-.845-.418-.845-.377-.887-.377-.929-.335-.929-.335-.929-.293-1.014-.251-.971-.251-1.056-.251-1.056-.209-1.056-.209-1.1-.167-1.14-.126-2.323-.251-2.365-.209-2.492-.084-2.534-.04-1.9.04-1.985.04-2.069.126-2.154.167-2.238.251-2.28.293L336,69.131l-2.365.5-1.182.251-1.225.293-1.182.335-1.225.335-1.225.377-1.225.418-1.225.418-1.182.46-1.225.5-1.225.544-1.182.544-1.225.586-1.182.628-1.182.67-1.182.67-1.182.753V3.336h82.559v118.07Z" transform="translate(-0.05 -0.185)" fill="#003087" stroke="rgba(255,255,255,0)" stroke-miterlimit="10" stroke-width="0.008"/>
</svg>
