<svg xmlns="http://www.w3.org/2000/svg" width="400" height="107.443" viewBox="0 0 400 107.443">
  <path id="Netflix_" data-name="Netflix " d="M308.9,97.488c5.625.437,11.228.9,16.853,1.4V0H308.9ZM37.936,60.792,16,0H0V107.423c5.6-.791,11.208-1.562,16.853-2.291V46.714l19.5,56.023c6.125-.708,12.291-1.4,18.437-2.02V0H37.936Zm33.04,38.362q23.28-2.124,46.789-3.478v-16.6c-10,.583-20,1.27-29.936,2.041v-25.1c6.521-.063,15.124-.271,22.749-.167v-16.6c-6.083-.021-15.874.083-22.749.167V16.744h29.936V0H70.976Zm57.6-82.41H146.2v77.6q8.406-.312,16.853-.541V16.744h17.625V0h-52.1Zm62.893,76.6h16.853v-38.3h22.832v-16.6H208.3v-21.7h30.186V0H191.469ZM399.979,0h-18.5L369.293,28.261,358.315,0H340.087l19.582,50.5L338.316,100.05q8.874.875,17.707,1.833l12.436-28.8,12.312,31.76c6.417.833,12.812,1.687,19.208,2.6l.021-.021L378.063,50.858ZM266.132,0H249.3V94.177q22.967.781,45.727,2.312V79.89q-14.406-.969-28.895-1.624Z" fill="#e50914"/>
</svg>
